<?xml version="1.0" encoding="UTF-8" ?>
<!DOCTYPE svg PUBLIC "-//W3C//DTD SVG 1.1//EN" "http://www.w3.org/Graphics/SVG/1.1/DTD/svg11.dtd">
<svg width="442px" height="226px" viewBox="0 0 1364 698" version="1.1" xmlns="http://www.w3.org/2000/svg">
<g id="#fefefeff">
</g>
<g id="#171f5fff">
<path fill="#171f5f" opacity="1.00" d=" M 818.98 27.96 C 823.95 23.01 829.52 18.69 834.26 13.51 C 824.84 30.67 812.92 46.39 799.96 61.01 C 772.41 91.11 737.43 114.07 699.35 128.56 C 680.45 135.43 661.00 140.96 641.12 144.16 C 591.92 151.89 541.09 148.64 493.08 135.56 L 493.13 135.07 C 552.01 139.41 612.06 134.61 668.47 116.57 C 698.91 106.87 728.06 93.20 755.02 76.05 C 777.92 62.25 798.77 45.38 818.98 27.96 Z" />
<path fill="#171f5f" opacity="1.00" d=" M 303.45 228.79 C 316.28 226.93 329.41 227.31 342.14 229.78 C 356.64 232.78 370.45 239.54 381.09 249.94 C 394.24 262.18 401.82 279.47 404.26 297.08 C 407.43 318.64 404.18 341.79 392.30 360.35 C 384.18 373.42 371.63 383.40 357.62 389.56 C 342.02 396.00 324.74 397.76 308.03 396.02 C 287.91 394.31 268.34 385.22 254.74 370.17 C 242.64 356.70 235.89 338.98 234.57 321.02 C 232.73 300.45 236.60 278.72 248.53 261.54 C 260.75 243.11 281.70 231.47 303.45 228.79 M 309.08 257.43 C 295.68 259.36 282.76 266.83 275.72 278.60 C 267.13 292.28 266.08 309.27 268.38 324.89 C 270.58 339.55 279.01 353.66 292.41 360.60 C 304.25 366.33 317.91 367.65 330.82 365.66 C 343.42 364.08 355.49 357.35 362.77 346.85 C 370.75 334.90 373.12 319.99 372.15 305.88 C 370.93 292.57 366.53 278.80 356.53 269.45 C 343.90 257.90 325.56 254.73 309.08 257.43 Z" />
<path fill="#171f5f" opacity="1.00" d=" M 729.14 228.20 C 746.95 226.50 765.45 228.45 781.80 236.07 C 797.91 243.86 811.48 257.29 818.44 273.88 C 823.96 286.17 825.82 299.70 826.29 313.05 C 825.77 329.93 821.88 347.18 812.34 361.34 C 804.95 372.88 794.00 381.84 781.82 387.95 C 762.67 397.01 740.60 398.44 719.94 394.79 C 703.29 391.65 687.69 383.29 676.09 370.93 C 664.70 358.44 657.68 342.23 655.72 325.48 C 653.10 304.66 655.98 282.41 667.36 264.43 C 675.27 251.18 687.71 240.84 701.86 234.83 C 710.48 231.03 719.81 229.13 729.14 228.20 M 734.81 256.77 C 721.77 257.76 708.72 263.17 700.18 273.30 C 687.30 289.15 685.43 311.49 690.31 330.75 C 693.66 344.06 702.80 356.16 715.51 361.73 C 728.60 367.20 743.38 367.73 757.12 364.62 C 769.05 361.60 780.05 353.98 785.80 342.92 C 793.09 330.00 793.69 314.61 792.17 300.18 C 790.01 286.90 783.95 273.29 772.38 265.68 C 761.57 258.04 747.78 255.77 734.81 256.77 Z" />
<path fill="#171f5f" opacity="1.00" d=" M 137.24 230.50 C 147.67 230.47 158.10 230.48 168.54 230.49 C 168.49 284.80 168.67 339.12 168.45 393.43 C 158.77 393.59 148.83 393.55 139.56 390.39 C 125.44 385.21 113.39 375.57 103.28 364.62 C 85.08 345.77 70.98 323.55 55.31 302.67 C 47.63 292.84 40.23 282.51 30.37 274.72 C 30.23 314.28 30.50 353.84 30.24 393.40 C 20.16 393.48 10.08 393.42 0.00 393.44 L 0.00 230.47 C 7.62 230.70 15.53 229.63 22.84 232.36 C 35.70 236.79 46.00 246.12 55.29 255.74 C 78.66 280.46 96.41 309.71 118.34 335.63 C 124.01 342.34 130.13 348.75 137.17 354.05 C 137.27 312.87 137.13 271.69 137.24 230.50 Z" />
<path fill="#171f5f" opacity="1.00" d=" M 1063.40 230.44 C 1102.80 230.55 1142.21 230.37 1181.61 230.53 C 1181.84 240.27 1181.64 250.01 1181.71 259.75 C 1171.84 260.64 1161.88 259.91 1151.98 260.15 C 1132.88 260.32 1113.75 259.80 1094.68 260.41 C 1094.79 272.09 1094.66 283.77 1094.75 295.45 C 1121.61 295.77 1148.48 295.40 1175.34 295.64 C 1175.54 305.36 1175.42 315.10 1175.41 324.83 C 1166.96 325.57 1158.48 324.73 1150.02 324.93 C 1133.35 325.03 1116.70 324.96 1100.04 324.97 C 1098.23 325.02 1096.44 325.21 1094.68 325.48 C 1095.05 335.60 1093.29 346.83 1099.18 355.78 C 1104.82 364.12 1115.77 365.48 1125.01 366.20 C 1144.01 366.80 1163.08 366.00 1181.87 362.97 C 1181.73 372.58 1182.10 382.22 1181.69 391.81 C 1171.58 394.23 1161.17 395.14 1150.84 396.21 C 1134.24 396.86 1117.34 397.42 1101.08 393.41 C 1088.87 390.42 1077.05 383.40 1070.74 372.23 C 1064.62 361.58 1063.27 349.05 1063.16 336.99 C 1063.14 304.65 1063.16 272.31 1063.15 239.97 C 1063.13 236.79 1063.05 233.60 1063.40 230.44 Z" />
<path fill="#171f5f" opacity="1.00" d=" M 1249.50 230.51 C 1260.07 230.55 1270.66 230.24 1281.23 230.67 C 1281.23 266.78 1281.23 302.89 1281.23 339.00 C 1281.20 345.08 1282.02 351.43 1285.30 356.68 C 1288.74 362.09 1295.22 364.63 1301.30 365.68 C 1322.20 367.61 1343.21 365.44 1364.00 363.24 L 1364.00 392.06 C 1349.50 394.73 1334.81 396.32 1320.07 396.54 C 1306.08 396.86 1291.58 396.68 1278.42 391.32 C 1271.87 388.85 1265.81 384.91 1261.31 379.52 C 1254.62 371.12 1251.24 360.53 1250.26 349.94 C 1249.09 342.00 1249.60 333.96 1249.49 325.98 C 1249.49 294.15 1249.48 262.33 1249.50 230.51 Z" />
<path fill="#171f5f" opacity="1.00" d=" M 443.61 230.58 C 455.56 230.51 467.50 230.60 479.45 230.54 C 496.66 267.82 512.83 305.59 530.01 342.88 C 547.07 305.53 563.30 267.78 580.54 230.50 C 592.58 230.65 604.62 230.49 616.66 230.59 C 590.46 285.34 563.80 339.88 537.39 394.54 C 532.43 394.61 527.48 394.61 522.53 394.54 C 496.23 339.89 469.77 285.30 443.61 230.58 Z" />
<path fill="#171f5f" opacity="1.00" d=" M 861.63 230.63 C 911.27 230.51 960.91 230.59 1010.56 230.59 C 1010.58 239.95 1010.54 249.32 1010.58 258.69 C 991.00 258.93 971.42 258.72 951.84 258.80 C 951.77 303.67 951.82 348.53 951.82 393.40 C 941.33 393.60 930.84 393.37 920.35 393.53 C 919.61 390.05 919.83 386.50 919.84 382.98 C 919.83 341.59 919.83 300.21 919.84 258.82 C 900.41 258.62 880.97 259.09 861.56 258.58 C 861.53 249.26 861.41 239.94 861.63 230.63 Z" />
<path fill="#171f5f" opacity="1.00" d=" M 876.73 492.66 C 884.53 490.29 893.16 491.20 900.74 493.99 C 900.71 495.82 900.71 497.66 900.72 499.50 C 893.24 497.44 884.76 494.45 877.40 498.46 C 872.12 501.14 872.27 509.81 877.61 512.35 C 884.68 515.95 893.41 515.92 899.67 521.22 C 906.88 527.96 904.79 541.63 895.70 545.71 C 886.84 549.77 876.21 548.17 867.55 544.28 C 867.55 542.43 867.55 540.59 867.56 538.76 C 875.53 541.46 884.55 544.40 892.68 540.63 C 898.77 538.39 899.90 529.24 894.95 525.30 C 888.21 520.63 879.13 521.33 872.56 516.38 C 864.79 510.10 867.34 496.00 876.73 492.66 Z" />
<path fill="#171f5f" opacity="1.00" d=" M 1156.87 496.89 C 1159.41 493.41 1163.72 491.81 1167.90 491.52 C 1174.17 490.96 1180.61 491.73 1186.52 493.95 C 1186.50 495.79 1186.50 497.64 1186.51 499.50 C 1179.07 497.46 1170.66 494.48 1163.31 498.41 C 1157.88 501.02 1158.03 509.92 1163.51 512.41 C 1170.78 516.07 1179.95 515.93 1186.08 521.83 C 1192.86 529.00 1189.80 542.09 1180.82 545.93 C 1172.12 549.71 1161.90 548.02 1153.43 544.38 C 1153.37 542.38 1153.25 540.37 1153.24 538.38 C 1160.28 541.44 1168.30 543.71 1175.94 541.58 C 1178.37 540.86 1180.93 539.72 1182.34 537.49 C 1184.94 533.60 1184.19 527.48 1180.12 524.88 C 1173.64 520.86 1165.43 521.11 1159.04 516.92 C 1152.75 512.50 1152.11 502.66 1156.87 496.89 Z" />
<path fill="#171f5f" opacity="1.00" d=" M 268.08 492.15 C 274.13 491.04 280.63 492.06 286.01 495.06 C 293.22 499.04 297.34 507.10 298.22 515.09 C 299.43 524.13 297.28 534.12 290.72 540.76 C 281.25 550.82 263.06 550.59 254.04 540.03 C 247.43 532.50 246.05 521.56 247.96 512.01 C 249.93 502.16 257.89 493.50 268.08 492.15 M 268.52 497.68 C 264.41 498.49 260.69 500.91 258.21 504.27 C 251.89 512.89 251.90 525.50 257.65 534.41 C 263.62 543.65 278.25 544.64 285.79 536.84 C 293.56 528.91 293.90 515.76 288.71 506.34 C 284.75 499.45 276.26 495.82 268.52 497.68 Z" />
<path fill="#171f5f" opacity="1.00" d=" M 539.02 494.89 C 547.35 489.94 557.59 491.78 566.46 494.18 C 566.47 496.09 566.48 498.00 566.52 499.94 C 559.09 497.59 550.40 495.69 543.06 499.22 C 537.80 501.77 538.28 509.94 543.03 512.76 C 549.28 516.65 557.18 516.56 563.44 520.47 C 570.03 524.37 571.67 534.13 567.35 540.29 C 564.34 544.57 559.26 547.21 554.10 547.75 C 546.90 548.53 539.43 547.46 532.92 544.22 C 532.94 542.40 532.95 540.58 532.97 538.77 C 541.06 541.51 550.27 544.48 558.46 540.45 C 564.40 537.96 565.17 528.70 559.99 525.06 C 553.57 520.93 545.38 521.13 538.91 517.11 C 531.51 512.23 531.38 499.63 539.02 494.89 Z" />
<path fill="#171f5f" opacity="1.00" d=" M 643.90 492.90 C 649.85 490.94 656.39 491.46 662.25 493.51 C 662.24 495.25 662.24 496.99 662.26 498.74 C 657.30 497.08 651.90 496.29 646.78 497.71 C 643.07 499.11 640.35 503.12 641.08 507.16 C 641.79 512.10 645.91 515.46 648.97 519.07 C 653.08 523.18 657.07 527.45 661.46 531.29 C 662.65 527.12 662.85 522.77 662.32 518.49 C 664.05 518.49 665.78 518.49 667.51 518.50 C 668.69 524.29 668.17 530.38 665.66 535.77 C 669.39 539.40 673.07 543.08 676.76 546.75 C 674.16 546.75 671.57 546.75 668.99 546.76 C 666.81 544.62 664.65 542.46 662.46 540.34 C 657.35 545.92 649.43 548.41 642.01 547.32 C 635.23 547.04 628.37 542.13 627.49 535.12 C 625.95 527.10 630.79 518.93 638.00 515.48 C 635.49 511.47 633.80 506.57 635.21 501.87 C 636.19 497.55 639.79 494.27 643.90 492.90 M 633.54 534.91 C 634.20 538.48 637.49 540.90 640.84 541.77 C 647.15 543.59 654.36 541.46 658.70 536.52 C 652.85 530.88 647.25 524.96 641.30 519.43 C 635.73 522.17 632.02 528.72 633.54 534.91 Z" />
<path fill="#171f5f" opacity="1.00" d=" M 953.41 492.54 C 959.92 490.86 967.10 491.77 973.00 494.99 C 979.94 498.79 984.09 506.37 985.17 514.04 C 986.68 523.41 984.61 533.89 977.78 540.80 C 968.25 550.87 949.97 550.56 941.01 539.89 C 934.69 532.58 933.28 522.13 934.86 512.87 C 936.56 503.34 943.66 494.51 953.41 492.54 M 955.55 497.70 C 946.95 499.33 941.54 507.87 940.70 516.11 C 940.03 523.47 941.54 531.61 946.93 537.02 C 953.76 543.90 966.14 543.72 972.91 536.84 C 980.66 528.87 981.01 515.70 975.77 506.27 C 971.78 499.39 963.27 495.82 955.55 497.70 Z" />
<path fill="#171f5f" opacity="1.00" d=" M 171.91 492.75 C 173.89 492.74 175.87 492.74 177.85 492.75 C 177.85 500.58 177.85 508.41 177.85 516.24 C 188.16 516.25 198.47 516.25 208.78 516.24 C 208.78 508.41 208.78 500.58 208.78 492.75 C 210.76 492.74 212.75 492.74 214.74 492.75 C 214.73 510.75 214.75 528.75 214.73 546.75 C 212.75 546.75 210.76 546.75 208.78 546.75 C 208.78 538.50 208.78 530.25 208.78 522.01 C 198.47 521.99 188.16 522.00 177.85 522.00 C 177.85 530.25 177.85 538.50 177.84 546.75 C 175.86 546.75 173.88 546.75 171.90 546.75 C 171.90 528.75 171.88 510.75 171.91 492.75 Z" />
<path fill="#171f5f" opacity="1.00" d=" M 322.04 492.75 C 337.20 492.74 352.36 492.75 367.52 492.75 C 367.51 494.66 367.50 496.58 367.50 498.50 C 360.92 498.52 354.34 498.47 347.76 498.53 C 347.78 514.60 347.76 530.67 347.77 546.74 C 345.81 546.75 343.85 546.76 341.90 546.80 C 341.70 530.70 341.86 514.60 341.81 498.51 C 335.23 498.50 328.65 498.49 322.07 498.51 C 322.06 496.59 322.05 494.67 322.04 492.75 Z" />
<path fill="#171f5f" opacity="1.00" d=" M 400.30 527.04 C 400.36 515.60 400.22 504.15 400.37 492.71 C 411.03 492.80 421.69 492.72 432.35 492.75 C 432.34 494.66 432.34 496.57 432.35 498.50 C 423.66 498.51 414.97 498.51 406.28 498.49 C 406.26 504.17 406.23 509.84 406.30 515.52 C 414.61 515.48 422.92 515.48 431.23 515.52 C 431.22 517.42 431.21 519.33 431.21 521.25 C 422.90 521.25 414.58 521.25 406.27 521.25 C 406.39 525.85 405.91 530.50 406.67 535.07 C 407.03 538.04 409.60 540.40 412.52 540.79 C 419.21 541.94 426.00 540.77 432.72 540.50 C 432.71 542.30 432.72 544.12 432.72 545.94 C 424.80 546.80 416.65 548.20 408.78 546.23 C 405.42 545.49 402.73 542.81 401.58 539.62 C 400.11 535.60 400.32 531.25 400.30 527.04 Z" />
<path fill="#171f5f" opacity="1.00" d=" M 471.47 493.27 C 473.43 493.25 475.40 493.23 477.37 493.20 C 477.55 507.09 477.29 520.99 477.49 534.88 C 477.42 537.64 478.74 540.66 481.70 541.27 C 488.49 542.88 495.53 541.58 502.40 541.24 C 502.38 543.08 502.38 544.94 502.36 546.80 C 494.17 547.62 485.63 549.02 477.63 546.38 C 473.46 544.95 471.52 540.41 471.56 536.28 C 471.36 521.95 471.55 507.61 471.47 493.27 Z" />
<path fill="#171f5f" opacity="1.00" d=" M 728.58 492.75 C 735.71 492.80 742.84 492.64 749.97 492.82 C 754.44 492.89 758.74 494.91 761.89 498.04 C 767.81 504.11 766.90 515.37 760.04 520.39 C 758.07 522.02 755.57 522.75 753.20 523.58 C 758.54 531.29 763.87 539.01 769.15 546.76 C 766.80 546.75 764.46 546.75 762.13 546.76 C 756.95 539.37 751.66 532.05 746.60 524.58 C 742.58 524.45 738.55 524.50 734.54 524.51 C 734.53 531.92 734.53 539.33 734.53 546.75 C 732.54 546.75 730.56 546.75 728.58 546.76 C 728.57 528.76 728.58 510.75 728.58 492.75 M 734.91 498.50 C 734.91 505.17 734.91 511.83 734.91 518.50 C 741.28 518.07 747.94 519.52 754.10 517.45 C 761.64 514.87 761.72 502.51 754.32 499.72 C 748.11 497.50 741.36 498.88 734.91 498.50 Z" />
<path fill="#171f5f" opacity="1.00" d=" M 801.98 492.75 C 812.67 492.75 823.35 492.75 834.04 492.75 C 834.01 494.67 833.98 496.60 833.96 498.53 C 825.29 498.47 816.62 498.51 807.96 498.51 C 807.93 504.17 807.92 509.83 807.96 515.49 C 816.27 515.50 824.58 515.50 832.90 515.49 C 832.90 517.41 832.90 519.32 832.91 521.25 C 824.59 521.25 816.27 521.25 807.95 521.25 C 808.04 525.84 807.62 530.47 808.33 535.02 C 808.70 537.96 811.18 540.34 814.09 540.76 C 820.81 541.97 827.64 540.76 834.39 540.50 C 834.38 542.31 834.38 544.13 834.39 545.96 C 826.00 546.79 817.22 548.48 809.01 545.75 C 803.95 543.82 802.14 537.98 802.06 533.02 C 801.91 519.60 802.06 506.17 801.98 492.75 Z" />
<path fill="#171f5f" opacity="1.00" d=" M 1016.98 492.75 C 1023.96 492.79 1030.94 492.66 1037.93 492.80 C 1042.96 492.80 1047.88 495.15 1051.13 498.98 C 1054.98 503.79 1055.08 510.94 1052.16 516.23 C 1049.93 520.07 1045.90 522.44 1041.69 523.54 C 1046.85 531.36 1052.32 538.98 1057.56 546.75 C 1055.18 546.75 1052.82 546.75 1050.46 546.73 C 1045.27 539.29 1040.07 531.86 1034.81 524.48 C 1030.88 524.51 1026.96 524.52 1023.04 524.46 C 1022.82 531.89 1023.00 539.32 1022.93 546.75 C 1020.95 546.75 1018.97 546.75 1017.01 546.76 C 1016.98 528.76 1017.03 510.75 1016.98 492.75 M 1022.96 498.51 C 1022.92 505.17 1022.93 511.83 1022.96 518.49 C 1029.34 518.06 1036.03 519.55 1042.19 517.43 C 1049.68 514.79 1049.72 502.50 1042.35 499.71 C 1036.14 497.50 1029.40 498.88 1022.96 498.51 Z" />
<path fill="#171f5f" opacity="1.00" d=" M 1080.69 492.75 C 1095.73 492.75 1110.76 492.73 1125.79 492.77 C 1125.77 494.67 1125.77 496.59 1125.78 498.50 C 1119.19 498.50 1112.61 498.50 1106.03 498.50 C 1106.01 514.59 1106.06 530.67 1106.01 546.75 C 1104.02 546.75 1102.05 546.75 1100.08 546.76 C 1099.99 530.66 1100.21 514.56 1099.97 498.46 C 1093.55 498.54 1087.12 498.49 1080.70 498.50 C 1080.68 496.58 1080.68 494.66 1080.69 492.75 Z" />
<path fill="#171f5f" opacity="1.00" d=" M 150.36 600.97 C 157.48 599.86 162.06 606.08 166.18 610.78 C 169.74 614.50 172.82 618.70 176.77 622.04 C 181.72 616.25 186.80 610.55 192.05 605.02 C 194.71 602.07 198.56 600.49 202.55 601.00 C 202.50 617.32 202.51 633.65 202.54 649.98 C 200.28 649.97 198.02 649.95 195.77 649.88 C 195.83 648.58 195.89 647.29 195.95 646.01 C 195.80 638.00 195.81 630.00 195.93 622.00 C 195.81 619.32 195.77 616.63 196.05 613.97 C 195.94 613.15 195.73 611.51 195.62 610.69 C 189.19 616.94 183.56 623.97 177.40 630.49 C 176.46 631.85 175.23 630.19 174.55 629.50 C 168.76 623.30 163.45 616.60 157.22 610.83 C 157.15 614.21 157.17 617.61 157.07 621.00 C 157.21 624.66 157.18 628.33 157.10 632.00 C 156.85 637.96 157.23 643.91 157.17 649.88 C 154.90 649.95 152.63 649.98 150.35 649.99 C 150.38 633.65 150.37 617.31 150.36 600.97 Z" />
<path fill="#171f5f" opacity="1.00" d=" M 238.11 601.20 C 240.08 601.06 242.06 601.01 244.04 601.00 C 251.43 617.35 258.84 633.70 266.43 649.96 C 263.90 649.97 261.37 649.97 258.84 649.98 C 257.36 646.62 255.80 643.30 254.27 639.97 C 245.50 640.05 236.74 639.84 227.98 640.09 C 226.54 643.26 225.26 646.52 223.66 649.62 C 221.25 650.40 218.60 649.82 216.11 649.96 C 223.30 633.65 231.06 617.58 238.11 601.20 M 241.00 609.14 C 237.58 617.14 234.03 625.10 230.45 633.03 C 237.58 632.97 244.71 633.10 251.84 632.95 C 248.10 625.07 244.95 616.91 241.00 609.14 Z" />
<path fill="#171f5f" opacity="1.00" d=" M 279.62 600.94 C 283.59 600.64 287.53 601.90 290.51 604.54 C 296.42 609.64 300.89 616.15 305.44 622.43 C 310.50 629.21 314.88 636.98 322.17 641.65 C 322.30 628.10 322.21 614.55 322.22 601.00 C 324.54 601.01 326.86 601.04 329.18 601.13 C 328.85 617.40 329.12 633.63 329.18 649.91 C 319.64 651.20 312.99 642.91 307.73 636.25 C 300.69 627.71 295.85 617.02 286.63 610.50 C 286.39 623.65 286.57 636.81 286.54 649.97 C 284.23 649.97 281.92 649.97 279.62 649.98 C 279.63 633.63 279.62 617.29 279.62 600.94 Z" />
<path fill="#171f5f" opacity="1.00" d=" M 348.62 601.02 C 350.92 601.01 353.23 601.02 355.54 601.03 C 355.52 617.34 355.50 633.64 355.55 649.95 C 353.23 649.97 350.93 649.97 348.62 649.98 C 348.63 633.66 348.63 617.34 348.62 601.02 Z" />
<path fill="#171f5f" opacity="1.00" d=" M 374.22 601.02 C 376.40 601.02 378.59 601.02 380.78 601.02 C 380.79 612.02 380.69 623.03 380.82 634.03 C 380.79 637.85 383.00 641.87 387.04 642.55 C 393.52 643.63 400.17 642.85 406.63 641.92 C 406.63 644.11 406.63 646.30 406.64 648.50 C 398.28 649.81 389.25 651.38 381.20 647.91 C 376.22 645.71 374.31 639.93 374.27 634.86 C 374.16 623.58 374.28 612.30 374.22 601.02 Z" />
<path fill="#171f5f" opacity="1.00" d=" M 436.13 601.19 C 438.10 601.06 440.07 601.01 442.04 601.00 C 449.43 617.35 456.83 633.70 464.43 649.96 C 461.89 649.97 459.36 649.97 456.84 649.98 C 455.35 646.61 453.80 643.28 452.24 639.95 C 443.48 640.07 434.73 639.83 425.98 640.09 C 424.56 643.23 423.28 646.45 421.71 649.52 C 419.35 650.55 416.56 649.77 414.04 649.87 C 421.44 633.66 429.00 617.52 436.13 601.19 M 428.47 632.98 C 435.59 633.03 442.71 633.08 449.84 632.95 C 446.13 625.04 442.85 616.93 439.05 609.07 C 435.59 617.06 432.08 625.04 428.47 632.98 Z" />
<path fill="#171f5f" opacity="1.00" d=" M 517.04 601.09 C 519.01 601.04 520.99 601.04 522.97 601.09 C 530.25 617.42 537.65 633.72 545.28 649.90 C 542.76 649.95 540.24 649.98 537.73 650.02 C 536.20 646.68 534.65 643.33 533.14 639.98 C 524.39 640.00 515.64 639.91 506.89 640.04 C 505.36 643.37 503.87 646.73 502.27 650.04 C 499.78 649.99 497.30 649.95 494.83 649.87 C 502.35 633.67 509.82 617.43 517.04 601.09 M 509.32 633.02 C 516.44 633.02 523.56 633.01 530.68 633.03 C 527.08 625.06 523.58 617.05 519.99 609.07 C 516.34 617.01 512.91 625.05 509.32 633.02 Z" />
<path fill="#171f5f" opacity="1.00" d=" M 558.34 601.04 C 567.41 601.56 577.09 599.43 585.64 603.34 C 593.73 607.22 595.55 618.56 590.75 625.68 C 589.05 628.43 586.22 630.17 583.46 631.71 C 588.43 637.70 593.09 643.94 598.03 649.97 C 595.31 649.97 592.60 649.97 589.90 650.00 C 585.22 644.05 580.63 638.04 576.03 632.03 C 572.43 631.95 568.83 631.97 565.24 631.99 C 565.24 637.98 565.24 643.98 565.24 649.98 C 562.94 649.97 560.64 649.97 558.35 649.97 C 558.37 633.66 558.39 617.35 558.34 601.04 M 565.24 607.98 C 565.24 613.99 565.24 620.00 565.24 626.02 C 570.18 625.94 575.14 626.19 580.08 625.92 C 586.61 623.98 589.13 613.81 583.20 609.78 C 577.75 606.68 571.19 608.43 565.24 607.98 Z" />
<path fill="#171f5f" opacity="1.00" d=" M 605.37 649.98 C 612.86 633.67 620.21 617.29 627.74 600.99 C 629.57 600.99 631.42 600.99 633.26 600.99 C 640.81 617.29 648.18 633.67 655.70 649.98 C 653.14 649.99 650.58 649.97 648.03 649.88 C 646.76 646.58 645.15 643.43 643.82 640.16 C 635.20 639.83 626.55 639.92 617.94 640.08 C 615.38 642.57 614.70 646.71 613.00 649.88 C 610.45 649.97 607.90 649.98 605.37 649.98 M 630.15 609.65 C 626.70 617.41 623.42 625.24 619.76 632.90 C 626.85 633.14 633.95 632.98 641.05 633.01 C 638.56 626.88 635.70 620.93 633.09 614.86 C 632.27 613.03 631.64 611.05 630.15 609.65 Z" />
<path fill="#171f5f" opacity="1.00" d=" M 668.76 600.95 C 673.40 600.47 677.80 602.53 681.06 605.73 C 689.49 613.93 695.40 624.23 702.63 633.42 C 705.15 636.52 707.88 639.53 711.30 641.67 C 711.44 628.12 711.34 614.57 711.35 601.02 C 713.64 601.02 715.94 601.02 718.24 601.02 C 718.24 617.36 718.24 633.71 718.24 650.05 C 713.51 650.43 708.85 648.71 705.37 645.52 C 696.61 637.74 690.95 627.30 683.76 618.19 C 681.44 615.27 678.93 612.43 675.70 610.50 C 675.55 623.66 675.66 636.81 675.65 649.97 C 673.34 649.97 671.05 649.97 668.76 649.98 C 668.76 633.63 668.76 617.29 668.76 600.95 Z" />
<path fill="#171f5f" opacity="1.00" d=" M 737.19 601.01 C 748.38 601.03 759.58 601.01 770.78 601.02 C 770.76 603.34 770.76 605.65 770.78 607.98 C 761.72 608.01 752.67 607.91 743.62 608.04 C 743.64 612.34 743.63 616.65 743.62 620.96 C 752.00 621.09 760.39 620.99 768.78 621.02 C 768.76 623.33 768.76 625.65 768.78 627.98 C 760.39 628.01 752.01 627.91 743.62 628.04 C 743.64 632.78 742.66 639.59 748.17 641.73 C 755.42 644.13 763.35 642.95 770.76 641.89 C 770.76 644.09 770.76 646.31 770.77 648.52 C 761.63 649.98 751.49 651.56 742.98 646.96 C 737.43 643.76 736.90 636.73 736.83 631.01 C 737.00 621.01 736.48 610.99 737.19 601.01 Z" />
<path fill="#171f5f" opacity="1.00" d=" M 782.45 601.06 C 796.83 601.03 811.21 600.93 825.59 601.11 C 825.52 603.39 825.51 605.67 825.52 607.97 C 819.46 608.01 813.41 607.92 807.35 608.03 C 807.41 622.01 807.36 635.99 807.38 649.98 C 805.12 649.97 802.86 649.97 800.62 649.98 C 800.65 636.00 800.57 622.02 800.66 608.05 C 794.59 607.90 788.53 608.02 782.47 607.97 C 782.47 605.66 782.47 603.35 782.45 601.06 Z" />
<path fill="#171f5f" opacity="1.00" d=" M 826.51 649.98 C 834.00 633.68 841.43 617.34 848.84 601.00 C 850.75 601.12 852.82 600.67 854.66 601.39 C 862.04 617.58 869.47 633.77 876.82 649.99 C 874.26 650.00 871.70 649.99 869.15 649.82 C 867.87 646.53 866.27 643.39 864.97 640.13 C 856.23 639.77 847.47 640.13 838.73 639.92 C 837.01 643.19 835.60 646.60 834.06 649.96 C 831.54 649.97 829.02 649.97 826.51 649.98 M 851.19 609.78 C 847.94 617.56 844.43 625.23 841.01 632.93 C 848.14 633.09 855.27 633.06 862.40 632.93 C 859.05 626.01 856.10 618.90 852.95 611.89 C 852.59 610.98 852.01 610.28 851.19 609.78 Z" />
<path fill="#171f5f" opacity="1.00" d=" M 915.67 604.65 C 924.20 599.86 934.45 600.69 943.77 602.06 C 943.76 604.35 943.76 606.64 943.79 608.93 C 937.23 607.79 930.36 607.37 923.83 608.84 C 918.03 610.09 913.27 614.96 912.48 620.88 C 911.97 625.97 911.77 631.65 914.85 636.04 C 917.70 640.35 922.92 642.36 927.89 642.87 C 933.19 643.26 938.55 642.99 943.79 642.04 C 943.76 644.33 943.76 646.63 943.78 648.94 C 934.24 650.33 923.59 651.22 915.08 645.83 C 908.36 641.72 904.94 633.70 905.22 626.00 C 904.73 617.74 908.26 608.86 915.67 604.65 Z" />
<path fill="#171f5f" opacity="1.00" d=" M 957.62 601.02 C 968.93 601.04 980.23 600.98 991.54 601.05 C 991.51 603.34 991.52 605.63 991.56 607.93 C 982.49 608.06 973.43 607.91 964.37 608.01 C 964.38 612.34 964.37 616.67 964.38 621.01 C 972.76 621.03 981.14 621.01 989.53 621.03 C 989.51 623.33 989.52 625.63 989.55 627.94 C 981.16 628.03 972.76 627.94 964.37 627.99 C 964.52 632.60 963.17 639.23 968.44 641.56 C 975.78 644.24 983.94 642.94 991.51 641.89 C 991.51 644.08 991.51 646.28 991.54 648.49 C 982.66 649.96 973.01 651.40 964.55 647.47 C 959.45 645.16 957.64 639.18 957.63 634.00 C 957.61 623.01 957.63 612.01 957.62 601.02 Z" />
<path fill="#171f5f" opacity="1.00" d=" M 1009.22 600.96 C 1015.89 600.21 1021.37 604.97 1025.27 609.81 C 1031.66 617.14 1036.76 625.46 1042.73 633.13 C 1045.24 636.35 1048.04 639.42 1051.51 641.64 C 1051.77 628.10 1051.55 614.55 1051.62 601.01 C 1053.93 601.01 1056.25 601.03 1058.58 601.09 C 1058.45 617.40 1058.54 633.71 1058.53 650.02 C 1053.47 650.51 1048.61 648.38 1045.00 644.94 C 1037.33 637.79 1031.97 628.66 1025.76 620.32 C 1022.98 616.70 1020.04 613.10 1016.23 610.53 C 1016.02 619.02 1016.30 627.51 1016.08 636.00 C 1016.22 640.62 1016.12 645.25 1016.18 649.88 C 1013.85 649.95 1011.53 649.98 1009.22 650.00 C 1009.24 633.65 1009.24 617.30 1009.22 600.96 Z" />
<path fill="#171f5f" opacity="1.00" d=" M 1071.83 601.13 C 1086.27 600.95 1100.73 600.95 1115.17 601.13 C 1115.15 603.37 1115.15 605.62 1115.17 607.88 C 1109.03 608.11 1102.89 607.85 1096.75 608.07 C 1096.79 622.04 1096.74 636.01 1096.78 649.98 C 1094.58 649.97 1092.40 649.97 1090.22 649.98 C 1090.26 636.01 1090.20 622.04 1090.25 608.07 C 1084.11 607.84 1077.96 608.12 1071.83 607.87 C 1071.83 605.62 1071.83 603.37 1071.83 601.13 Z" />
<path fill="#171f5f" opacity="1.00" d=" M 1127.82 601.13 C 1139.14 600.89 1150.46 601.08 1161.78 601.02 C 1161.76 603.34 1161.76 605.65 1161.78 607.98 C 1152.72 608.01 1143.67 607.91 1134.62 608.04 C 1134.63 612.36 1134.62 616.69 1134.64 621.02 C 1143.01 621.02 1151.39 621.02 1159.78 621.02 C 1159.76 623.33 1159.76 625.65 1159.78 627.98 C 1151.39 628.01 1143.00 627.91 1134.62 628.04 C 1134.64 632.77 1133.66 639.57 1139.16 641.73 C 1146.41 644.14 1154.37 642.96 1161.79 641.87 C 1161.76 644.08 1161.75 646.30 1161.76 648.52 C 1153.57 649.87 1144.92 651.10 1136.89 648.34 C 1132.67 647.00 1129.26 643.34 1128.58 638.92 C 1127.32 632.36 1128.00 625.63 1127.94 619.00 C 1127.73 613.04 1127.90 607.08 1127.82 601.13 Z" />
<path fill="#171f5f" opacity="1.00" d=" M 1179.22 601.02 C 1188.31 601.58 1198.03 599.41 1206.59 603.39 C 1214.80 607.43 1216.39 619.14 1211.23 626.19 C 1209.50 628.68 1206.85 630.26 1204.28 631.74 C 1209.33 637.68 1213.91 644.00 1218.90 649.99 C 1216.18 649.97 1213.47 649.97 1210.78 650.01 C 1206.07 644.11 1201.49 638.11 1196.95 632.09 C 1193.35 631.94 1189.75 631.96 1186.16 631.98 C 1186.14 637.95 1186.16 643.93 1186.15 649.90 C 1183.83 649.95 1181.52 649.98 1179.22 649.99 C 1179.24 633.67 1179.24 617.34 1179.22 601.02 M 1186.16 607.98 C 1186.15 613.99 1186.15 620.01 1186.16 626.02 C 1191.10 625.92 1196.05 626.21 1200.99 625.91 C 1207.42 623.90 1209.91 613.94 1204.13 609.85 C 1198.71 606.61 1192.11 608.46 1186.16 607.98 Z" />
</g>
</svg>
