<?xml version="1.0" encoding="UTF-8"?>
<svg id="Camada_1" data-name="Camada 1" xmlns="http://www.w3.org/2000/svg" viewBox="0 0 3240 2069">
  <path d="m2055.03,1138.24c-43.3-44.26-94.83-66.4-154.61-66.4-69.47,0-127.39,24.48-173.75,73.43-46.37,48.95-69.55,110.42-69.55,184.41s23.18,135.46,69.55,184.41c46.36,48.95,104.28,73.43,173.75,73.43,63.98,0,116.8-23.42,158.48-70.28l6.3,60.58h109.05v-744.44h-119.23v304.85Zm-37.8,299.03c-25.2,27.47-58.32,41.2-99.36,41.2s-74.08-13.73-99.11-41.2c-25.04-27.46-37.56-63.33-37.56-107.59s12.52-80.13,37.56-107.59c25.04-27.46,58.08-41.2,99.11-41.2s74.15,13.74,99.36,41.2c25.2,27.47,37.8,63.33,37.8,107.59s-12.6,80.13-37.8,107.59Z" fill="#fff"/>
  <path d="m2531.23,1626.02l-5.08,87.81c36.14,4.32,73.32,4.15,109.36-.6,66.57-8.77,131.11-32.84,185.84-72,55.89-39.98,100.34-95.04,128.57-157.62,12.24-27.13,21.37-55.83,28.24-84.76,5.18-21.83,8.71-44.05,10.67-66.39,2.6-29.51,3.61-59.88.47-89.42-.08-.75-.16-1.51-.26-2.26-.03-.21-.08-.42-.11-.64l-87.68,7.73c.05.87.07,1.73.18,2.61,1.37,10.78,1.73,21.75,1.88,32.6.05,3.6.04,7.2,0,10.79-1.05,28.78-4.61,57.49-10.91,85.59-1.87,8.32-4.04,16.57-6.39,24.77-9.03,28.31-21.09,55.59-36.41,81.07-13.93,21.42-30.15,41.23-48.45,59.06-19.05,17.27-39.95,32.38-62.29,45.1-24.41,12.77-50.23,22.64-76.88,29.62-26.3,5.99-53.18,9.3-80.15,9.91-4.43.1-8.86.1-13.29.05-10.8-.43-21.58-1.28-32.3-2.66-1.67-.21-3.34-.32-5.03-.36Z" fill="#d5ff1f"/>
  <path d="m2940.11,778.04h-105.75c2.1,25.38,1.83,50.93-1.04,76.24-3.91,24.9-10.45,49.29-19.73,72.74-9.65,21.47-21.58,41.81-35.56,60.75-16.25,20.16-34.71,38.42-54.88,54.65-14.29,10.66-29.28,20.3-44.83,28.96-7.8-37.11-25.16-67.9-52.06-92.4-37.91-34.48-89.56-51.73-154.96-51.73s-117.05,14.64-157.88,43.93c-40.83,29.27-65.14,67.51-72.95,114.68l109.8,20.99c12.36-52.71,49.78-79.07,112.25-79.07s94.84,26.04,102.97,78.09l-134.21,26.84c-28.95,5.86-54.17,12.93-75.64,21.24-21.47,8.29-41.16,18.78-59.05,31.47-17.9,12.69-31.57,28.55-41,47.59-9.43,19.03-14.15,40.92-14.15,65.64,0,46.2,15.21,82.4,45.63,108.59,30.41,26.19,69.22,39.28,116.4,39.28,34.16,0,65.63-7.16,94.43-21.47,28.79-14.32,52.62-34.32,71.49-60.03l7.81,71.74h105.9v-250.68c19.8-8.38,39.18-17.59,57.74-28.53,21.8-12.89,42.29-27.94,61.76-44.11,15.94-13.23,30.79-27.8,44.23-43.58,15.86-18.66,30.66-38.52,42.93-59.75,6.06-10.49,11.53-21.31,16.39-32.43,7.35-16.82,14.24-33.75,19.41-51.37,8.4-28.63,12.98-58.6,15.06-88.34,1.4-19.95,1.15-40.01-.52-59.93Zm-372.67,429.85c0,22.77-4.15,43.19-12.44,61.24-8.29,18.06-19.27,32.62-32.94,43.68-13.66,11.06-28.88,19.52-45.63,25.38-16.75,5.86-34.07,8.78-51.97,8.78-18.87,0-33.91-4.8-45.14-14.4-11.23-9.59-16.84-23.18-16.84-40.76,0-18.54,6.18-33.02,18.55-43.43,12.37-10.4,30.43-17.88,54.17-22.44l132.26-30.25v12.2Z" fill="#fff"/>
  <path d="m1236.42,957.22v343.68c0,44.61-36.17,80.78-80.78,80.78h0c-44.61,0-80.78-36.17-80.78-80.78v-343.68h-121.9v343.68c0,111.94,90.74,202.68,202.68,202.68h0c111.94,0,202.68-90.74,202.68-202.68v-343.68h-121.9Z" fill="#fff"/>
  <path d="m1471.42,860.28v464.11c0,172.77-140.06,312.84-312.84,312.84s-312.84-140.06-312.84-312.84v-718.93l-125.57,38.68v678.78c0,240.1,194.64,434.74,434.74,434.74s434.74-194.64,434.74-434.74v-462.64h-118.23Z" fill="#fff"/>
  <path d="m1474.39,779.68l107.07-152.65h176.26l-157.04,152.65h-126.29Z" fill="#d5ff1f"/>
  <path d="m471.33,460.06c20.03-15.91,49.86-24.23,71.1-26.72,61.92-7.26,110.77,25.47,128.9,39.87l75.27-94.71c-29.97-23.81-111.25-77.85-218.24-65.32-23.49,2.75-83.42,13.34-132.27,52.14-93.58,74.32-89.2,198.69-84.13,342.69.42,11.83.84,23.87,1.21,36.06h-64.43v110.45h65.91c-.03,45.61-.57,97.01-1.17,153.26-.76,72.31-1.62,154.26-1.62,243.84h120.97c0-88.95.86-170.56,1.62-242.57.59-56.59,1.14-108.32,1.17-154.54h165.52v-110.45h-166.94c-.41-13.7-.88-27.13-1.35-40.31-4.07-115.85-7.29-207.35,38.48-243.7Z" fill="#fff"/>
</svg>